<svg width="40" height="40" viewBox="0 0 40 40" fill="none" xmlns="http://www.w3.org/2000/svg">
<path d="M2.51149 19.9976C3.78235 19.9976 4.81377 20.9477 4.99795 22.1979C6.07124 29.4304 12.3468 34.9994 19.905 34.9994C29.074 34.9994 36.3592 26.8034 34.7518 17.3823C33.9933 12.9401 31.1552 9.00965 27.1786 6.85939C21.3082 3.68735 14.6542 4.77081 10.1333 8.60127L12.0254 10.4848C13.0802 11.5349 12.3334 13.3302 10.8416 13.3302H3.16283C2.23856 13.3302 1.48844 12.5834 1.48844 11.6633V4.01906C1.48844 2.53388 3.29175 1.79046 4.34662 2.84058L6.5769 5.06085C12.5394 -0.196446 21.4488 -1.78497 29.3452 2.34219C34.9042 5.24754 38.829 10.7215 39.765 16.9023C41.6436 29.2987 32.0075 40 19.9067 40C9.82522 40 1.45327 32.5708 0.0283705 22.9213C-0.197672 21.3878 0.954307 19.9976 2.51149 19.9976Z" fill="#0D0D0D"/>
</svg>
