<svg width="40" height="40" viewBox="0 0 40 40" fill="none" xmlns="http://www.w3.org/2000/svg">
<path d="M17.7539 10.0219V1.60153C17.8043 1.18035 17.6843 0.744927 17.3466 0.42082C16.76 -0.140273 15.8091 -0.140273 15.2224 0.42082L0.427202 16.0566C0.114646 16.3564 -0.0186901 16.7534 0.00209465 17.1459C-0.0186248 17.5385 0.114646 17.9355 0.427202 18.2352L15.1424 33.7854C15.6919 34.238 16.6992 34.495 17.348 33.871C17.6843 33.5469 17.8309 33.2743 17.7806 32.8531C17.7806 32.8531 17.7806 25.1309 17.7806 24.2871C27.5572 24.2871 36.399 31.0713 38.1543 40C39.3364 37.3817 40 34.4978 40 31.4597C40 19.6201 30.0398 10.0219 17.7539 10.0219Z" fill="#0D0D0D"/>
</svg>
