<svg width="40" height="40" viewBox="0 0 40 40" fill="none" xmlns="http://www.w3.org/2000/svg">
<path d="M22.2461 10.0219V1.60153C22.1957 1.18035 22.3157 0.744927 22.6534 0.42082C23.24 -0.140273 24.1909 -0.140273 24.7776 0.42082L39.5728 16.0566C39.8854 16.3564 40.0187 16.7534 39.9979 17.1459C40.0186 17.5385 39.8854 17.9355 39.5728 18.2352L24.8576 33.7854C24.3081 34.238 23.3008 34.495 22.652 33.871C22.3157 33.5469 22.1691 33.2743 22.2194 32.8531C22.2194 32.8531 22.2194 25.1309 22.2194 24.2871C12.4428 24.2871 3.60099 31.0713 1.84566 40C0.663609 37.3817 0 34.4978 0 31.4597C0 19.6201 9.96016 10.0219 22.2461 10.0219Z" fill="#0D0D0D"/>
</svg>
